# xmcd
# Copyright (C) 1995-1998 Ti Kan
#
# Track frame offsets:
#       150
#       2320
#       18401
#       28211
#       45743
#       53305
#       79237
#       93267
#       107778
#       125929
#       141527
#
# Disc length: 2210 seconds
#
# Revision: 0
# Processed by: cddbd v1.5.2PL0 Copyright (c) Steve Scherf et al.
# Submitted via: CD-Import v1.0
#
DISCID=8b08a00b
DTITLE=Beirut - March Of The Zapotec
DYEAR=2009
DGENRE=
TTITLE0=El Zócalo
TTITLE1=La Llorona
TTITLE2=My Wife
TTITLE3=The Akara
TTITLE4=On A Bayonet
TTITLE5=The Shrew
TTITLE6=My Night With The Prostitute From Marseille
TTITLE7=My Wife, Lost In The Wild
TTITLE8=Venice
TTITLE9=The Concubine
TTITLE10=No Dice
EXTD=
EXTT0=
EXTT1=
EXTT2=
EXTT3=
EXTT4=
EXTT5=
EXTT6=
EXTT7=
EXTT8=
EXTT9=
EXTT10=
PLAYORDER=
